<svg xmlns="http://www.w3.org/2000/svg" xmlns:xlink="http://www.w3.org/1999/xlink" viewBox="0 0 432.3 654.55"><defs><style>.cls-1,.cls-22,.cls-24{fill:none;}.cls-2{clip-path:url(#clip-path);}.cls-3{fill:#e4e4e3;}.cls-16,.cls-20,.cls-4{fill-opacity:0;stroke-linecap:round;stroke-linejoin:round;}.cls-16,.cls-4{stroke:#1a1919;}.cls-4{stroke-width:5.6px;}.cls-5{fill:#636463;}.cls-6{fill:#cbcccb;}.cls-7{fill:#f8d4b3;}.cls-8{fill:#cf957e;}.cls-9{fill:#fffffe;}.cls-10{fill:#7d4d3f;}.cls-11{fill:#e0b79f;}.cls-12{fill:#f8d2b5;}.cls-13{fill:#ec9896;}.cls-14{fill:#a8bfd9;}.cls-15{fill:#d2e0eb;}.cls-16{stroke-width:6.4px;}.cls-17{fill:#1a1919;}.cls-18{fill:#949594;}.cls-19{fill:#a7a8a7;}.cls-20{stroke:#ececeb;stroke-width:8px;}.cls-21{clip-path:url(#clip-path-2);}.cls-22,.cls-24{stroke:#000;stroke-miterlimit:1.45;}.cls-23{isolation:isolate;font-size:27.2px;font-family:ArialMT, Arial;}.cls-24{stroke-width:7px;}</style><clipPath id="clip-path" transform="translate(0.77 -20.43)"><rect class="cls-1" y="155.36" width="430.76" height="519.44"/></clipPath><clipPath id="clip-path-2" transform="translate(0.77 -20.43)"><rect class="cls-1" width="430.66" height="158.66"/></clipPath></defs><g id="Calque_2" data-name="Calque 2"><g id="Calque_1-2" data-name="Calque 1"><g id="Layer_1" data-name="Layer 1"><g class="cls-2"><path class="cls-3" d="M11,599.62C53.63,644.83,130.07,675,217.32,675S381,644.83,423.63,599.62H11" transform="translate(0.77 -20.43)"/><path class="cls-4" d="M2,598.63h96m260.52,0h70.15" transform="translate(0.77 -20.43)"/></g><path class="cls-5" d="M338.14,612.42c23.58-1.09,24.67-24.43,17.05-43.18L336.68,523.4s-24.28-44.25-26.48-49.34c-5.81-13.43-22.44-18.89-31.08-20.56S237.26,440,237.26,440l-32.52,2.85s-33.21,9-41.86,10.62-25.27,7.13-31.08,20.56c-2.2,5.09-26.48,49.34-26.48,49.34L86.81,569.24c-7.62,18.75-6.53,42.09,17.06,43.18" transform="translate(0.77 -20.43)"/><path class="cls-6" d="M193.12,446.12s-21.59,5.72-30.24,7.38-25.27,7.13-31.08,20.56c-2.2,5.09-26.48,49.34-26.48,49.34l1.45,7.26s24.28-44.25,26.49-49.35c5.8-13.42,22.44-18.88,31.08-20.55,4.32-.83,14.78-3.49,24.16-5.94l4.62-8.7" transform="translate(0.77 -20.43)"/><path class="cls-6" d="M249.36,449.75s22.57,9.35,31.21,11,25.27,7.13,31.08,20.55l-1.45-7.25c-5.81-13.43-22.44-18.89-31.08-20.56s-33.38-10.28-33.38-10.28l3.62,6.53" transform="translate(0.77 -20.43)"/><path class="cls-7" d="M235.1,442.54l-.63-9,.63-7.77-29.73,1.77v6l-.63,9,2.78,34.07h19.93l7.65-34.07" transform="translate(0.77 -20.43)"/><path class="cls-8" d="M205.37,429.73h29.1l.24,11.31s-5.53,8.12-26.58,11.08l-3.69-8.49.93-13.9" transform="translate(0.77 -20.43)"/><path class="cls-9" d="M220.36,567.14l17.4-94.24V438.19l-17.65,34.23-17.49-28.8V472.9l16.86,94.24" transform="translate(0.77 -20.43)"/><path class="cls-9" d="M202.8,441.32l-2.37,1.22-6.64,34.93,21.91-11.34-12.9-24.81" transform="translate(0.77 -20.43)"/><path class="cls-9" d="M224.15,466.13l21.91,11.34-6.66-38.76-1.64-.52-13.61,27.94" transform="translate(0.77 -20.43)"/><path class="cls-10" d="M248.22,433.92c48,5.58,56.78-20.27,56.78-20.27l6.16,24.66c16.59-13.76,20.5-73.26,20.5-73.26l6.52-53.25c8.41-120.55-54.76-126.53-54.76-126.53-13.33-29.86-110.76-51.2-159.76,20.15-31,45.1-25.29,108.13-25.29,108.13L114,367.9s12,44.34.74,65.19c0,0,21-4.26,23.34-10.9,0,0,6.63,13.75,49.3,10.9" transform="translate(0.77 -20.43)"/><path class="cls-11" d="M283.42,185.27c-13.33-29.86-110.76-51.2-159.76,20.15-31,45.1-25.29,108.13-25.29,108.13l9.75-2.4S102.71,226.59,152.33,190c56.8-41.87,109.35-15.1,129.91-5.21a2.92,2.92,0,0,1,1.18.47" transform="translate(0.77 -20.43)"/><path class="cls-12" d="M123.13,318.43s-5.75-11.14-16.56-7.77c-22.54,7-15.31,55.92,21.94,60.13" transform="translate(0.77 -20.43)"/><path class="cls-12" d="M315.33,318.62s5.74-11.15,16.55-7.77c22.55,7,16.56,55.92-21.28,60.13" transform="translate(0.77 -20.43)"/><path class="cls-12" d="M314.17,306.88a59.71,59.71,0,0,1-5.45,10.28c-8.94-68.74-82.9-99.18-82.9-99.18,39,34.26,39.29,53.4,39.29,53.4-65.78,3.56-98.69-43.31-98.69-43.31s-.35,8.15-4.64,20.59c-5.06,14.68-15.64,35.33-37.6,55.65,0,.31-.05.49-.05.49-1.12,18.54-.83,50.75,7.81,76.61,15.3,45.77,64.08,56.14,87.24,56.14s71.95-10.37,87.24-56.14c8.17-24.47,11.74-55,8-73.5-.06-.34-.16-.69-.23-1" transform="translate(0.77 -20.43)"/><path class="cls-9" d="M193.92,334.25c0,14.12-8.78,25.57-19.61,25.57s-19.61-11.45-19.61-25.57,8.78-25.58,19.61-25.58,19.61,11.45,19.61,25.58" transform="translate(0.77 -20.43)"/><path class="cls-9" d="M284.72,334.25c0,14.12-8.78,25.57-19.61,25.57s-19.61-11.45-19.61-25.57,8.78-25.58,19.61-25.58,19.61,11.45,19.61,25.58" transform="translate(0.77 -20.43)"/><path class="cls-13" d="M163.41,364.88c0,4.42-7.45,8-16.65,8s-16.66-3.59-16.66-8,7.46-8,16.66-8,16.65,3.59,16.65,8" transform="translate(0.77 -20.43)"/><path class="cls-13" d="M308.42,364.88c0,4.42-7.46,8-16.66,8s-16.66-3.59-16.66-8,7.46-8,16.66-8,16.66,3.59,16.66,8" transform="translate(0.77 -20.43)"/><path class="cls-8" d="M125.78,355.38l-1.66-18s-4.67-11.14-11.85-12.87c-9.25-2.22-9.44,12.68-3.08,21.09,9.71,12.88,16.59,9.77,16.59,9.77" transform="translate(0.77 -20.43)"/><path class="cls-8" d="M314,355.38l1.66-18s4.67-11.14,11.85-12.87c9.25-2.22,9.44,12.68,3.09,21.09-9.72,12.88-16.6,9.77-16.6,9.77" transform="translate(0.77 -20.43)"/><path class="cls-14" d="M203.15,473.53l13.11-7.2,3.85,6.09,4.27-6.09,12.36,6.46L236,483.12s-2.69-7.38-15-7.38-17.15,7.57-17.15,7.57l-.74-9.78" transform="translate(0.77 -20.43)"/><path class="cls-15" d="M176,314.93a37.87,37.87,0,0,1,12.86,2.27c-3.59-5.22-8.79-8.53-14.59-8.53-6.56,0-12.34,4.21-15.91,10.65A37.35,37.35,0,0,1,176,314.93" transform="translate(0.77 -20.43)"/><path class="cls-15" d="M263.51,314.93a37.88,37.88,0,0,0-12.87,2.27c3.59-5.22,8.79-8.53,14.59-8.53,6.56,0,12.34,4.21,15.91,10.65a37.31,37.31,0,0,0-17.63-4.39" transform="translate(0.77 -20.43)"/><path class="cls-11" d="M134.75,200.44c31.05,10.43,51.68,10.54,63.23,9,7.77-1.07,3.68-3.85.14-4.47-36.39-6.38-47.24-20.35-47.24-20.35l-16.13,15.86" transform="translate(0.77 -20.43)"/><path class="cls-6" d="M88.26,566.58l9.8-5.08v4.72s-12.7,5.44-14.51,11.25,1.08-7.62,4.71-10.89" transform="translate(0.77 -20.43)"/><path class="cls-6" d="M352.57,566.58l-14.25-7.27V564s17.15,7.63,19,13.44-1.09-7.62-4.72-10.89" transform="translate(0.77 -20.43)"/><path class="cls-4" d="M191,283.27c-7.47-5.69-26.31-8.54-36.62,3.91" transform="translate(0.77 -20.43)"/><path class="cls-16" d="M191.77,319.42c-8.23-17.35-42.7-17.42-37.78,23.5" transform="translate(0.77 -20.43)"/><path class="cls-4" d="M123.13,318.43s-5.75-11.14-16.56-7.77c-22.54,7-15.31,55.92,21.94,60.13m-21.53-47s7.43-5.07,16.55,14.86m.6-33.9c-1.12,18.54-.83,50.75,7.81,76.61,15.3,45.77,64.08,56.14,87.24,56.14s71.95-10.37,87.24-56.14c8.17-24.47,8.88-54.62,8-73.5m-67.6-24.64c7.46-5.69,26.31-8.54,36.62,3.91" transform="translate(0.77 -20.43)"/><path class="cls-16" d="M246.84,321.1c6.72-19,43.55-20.38,38.48,21.82" transform="translate(0.77 -20.43)"/><path class="cls-4" d="M315.33,318.62s5.74-11.15,16.55-7.77c22.55,7,16.56,55.92-21.28,60.13m20.67-47s-7.43-5.07-16.56,14.86m-167.47-8.06,6.27,3.91m132.28,0,8.42-3.91m-75,45v-5.69M312.11,256c18.07,30.82-3.39,61.16-3.39,61.16-8.94-68.74-82.9-99.18-82.9-99.18,39,34.26,39.29,53.4,39.29,53.4-65.78,3.56-98.69-43.31-98.69-43.31s-1.68,39.84-44,77.89c0,0-6.1-26.72,2.79-46.64M99,315.71s-6.29-65.19,24.67-110.29c49-71.35,146.43-50,159.76-20.15,0,0,63,7.64,54.56,128.19M114,367.9s12,44.34.74,65.19c0,0,21-4.26,23.34-10.9,0,0,6.63,13.75,49.3,10.9m144.25-68s-3.91,59.5-20.5,73.26L305,413.65s-8.78,25.85-56.78,20.27m-43.48,9s-33.21,9-41.86,10.62-25.27,7.13-31.08,20.56c-2.2,5.09-26.48,49.34-26.48,49.34L86.81,569.24c-7.62,18.75-6.53,42.09,17.06,43.18M237.26,440s33.22,11.81,41.86,13.47,25.27,7.13,31.08,20.56c2.2,5.09,26.48,49.34,26.48,49.34l18.51,45.84c7.62,18.75,6.53,42.09-17.05,43.18M202.62,443.62l17.49,28.8,17.1-32.11M215.7,466.13l-21.91,11.34L202,443.94m.6,29,16.86,94.24m-26-120.66L176,472.42l8.93,8.33L174.85,491.9l38.54,72.91m23.82-124.5,8.85,37.16-21.91-11.34m13.42,7.56-17.21,93.45M244.83,443.4,264,473.51l-8.94,8.33L265,491.9l-38.54,72.91M204.74,442.54l.65-5.4m29.71,5.4-.63-6" transform="translate(0.77 -20.43)"/><path class="cls-17" d="M190.86,344.85c0,9.63-5.41,17.43-12.09,17.43s-12.09-7.8-12.09-17.43,5.41-17.42,12.09-17.42,12.09,7.8,12.09,17.42" transform="translate(0.77 -20.43)"/><path class="cls-17" d="M248.22,344.85c0,9.63,5.41,17.43,12.09,17.43s12.09-7.8,12.09-17.43-5.41-17.42-12.09-17.42-12.09,7.8-12.09,17.42" transform="translate(0.77 -20.43)"/><path class="cls-9" d="M190.65,339a3.58,3.58,0,1,1-3.58-3.57,3.57,3.57,0,0,1,3.58,3.57" transform="translate(0.77 -20.43)"/><path class="cls-9" d="M271.47,339a3.58,3.58,0,1,1-3.58-3.57,3.57,3.57,0,0,1,3.58,3.57" transform="translate(0.77 -20.43)"/><path class="cls-4" d="M207.73,415c3,5.2,16.68,6.06,22.09.22" transform="translate(0.77 -20.43)"/><path class="cls-18" d="M336.45,638.4a3.3,3.3,0,0,1-3.3,3.29H102.44a3.3,3.3,0,0,1-3.29-3.29v-7.93a3.3,3.3,0,0,1,3.29-3.29H333.15a3.3,3.3,0,0,1,3.3,3.29v7.93" transform="translate(0.77 -20.43)"/><path class="cls-4" d="M336.45,638.4a3.3,3.3,0,0,1-3.3,3.29H102.44a3.3,3.3,0,0,1-3.29-3.29v-7.93a3.3,3.3,0,0,1,3.29-3.29H333.15a3.3,3.3,0,0,1,3.3,3.29Z" transform="translate(0.77 -20.43)"/><path class="cls-19" d="M336.93,625.07a6.39,6.39,0,0,1-6.24,5.74H104.91a6.41,6.41,0,0,1-6.25-5.74L87,488.5a5.21,5.21,0,0,1,5.27-5.73h251a5.2,5.2,0,0,1,5.26,5.73L336.93,625.07" transform="translate(0.77 -20.43)"/><path class="cls-20" d="M101.31,627.29,89.82,492.44a5.21,5.21,0,0,1,5.27-5.73h251" transform="translate(0.77 -20.43)"/><path class="cls-4" d="M336.93,625.07a6.39,6.39,0,0,1-6.24,5.74H104.91a6.41,6.41,0,0,1-6.25-5.74L87,488.5a5.21,5.21,0,0,1,5.27-5.73h251a5.2,5.2,0,0,1,5.26,5.73Z" transform="translate(0.77 -20.43)"/></g><g class="cls-21"><rect x="0.77" y="32.46" width="113.33" height="7.56"/></g><g class="cls-21"><rect class="cls-22" x="0.77" y="32.46" width="113.33" height="7.56"/></g><g class="cls-21"><rect x="0.77" y="77.8" width="113.33" height="7.56"/></g><g class="cls-21"><rect class="cls-22" x="0.77" y="77.8" width="113.33" height="7.56"/></g><g class="cls-21"><rect x="159.43" y="32.46" width="113.33" height="7.56"/></g><g class="cls-21"><rect class="cls-22" x="159.43" y="32.46" width="113.33" height="7.56"/></g><g class="cls-21"><rect x="159.43" y="77.8" width="113.33" height="7.56"/></g><g class="cls-21"><rect class="cls-22" x="159.43" y="77.8" width="113.33" height="7.56"/></g><g class="cls-21"><rect x="318.1" y="32.46" width="113.33" height="7.56"/></g><g class="cls-21"><rect class="cls-22" x="318.1" y="32.46" width="113.33" height="7.56"/></g><g class="cls-21"><rect x="318.1" y="77.8" width="113.33" height="7.56"/></g><g class="cls-21"><rect class="cls-22" x="318.1" y="77.8" width="113.33" height="7.56"/></g><g class="cls-21"><text class="cls-23" transform="translate(15.09 114.92)">Python</text></g><g class="cls-21"><text class="cls-23" transform="translate(337.73 114.92)">maths</text></g><g class="cls-21"><path class="cls-24" d="M262.55,22.67,168.11,136" transform="translate(0.77 -20.43)"/></g><g id="Layer_1-2" data-name="Layer 1"><g class="cls-2"><path class="cls-3" d="M11,599.62C53.63,644.83,130.07,675,217.32,675S381,644.83,423.63,599.62H11" transform="translate(0.77 -20.43)"/><path class="cls-4" d="M2,598.63h96m260.52,0h70.15" transform="translate(0.77 -20.43)"/></g><path class="cls-5" d="M338.14,612.42c23.58-1.09,24.67-24.43,17.05-43.18L336.68,523.4s-24.28-44.25-26.48-49.34c-5.81-13.43-22.44-18.89-31.08-20.56S237.26,440,237.26,440l-32.52,2.85s-33.21,9-41.86,10.62-25.27,7.13-31.08,20.56c-2.2,5.09-26.48,49.34-26.48,49.34L86.81,569.24c-7.62,18.75-6.53,42.09,17.06,43.18" transform="translate(0.77 -20.43)"/><path class="cls-6" d="M193.12,446.12s-21.59,5.72-30.24,7.38-25.27,7.13-31.08,20.56c-2.2,5.09-26.48,49.34-26.48,49.34l1.45,7.26s24.28-44.25,26.49-49.35c5.8-13.42,22.44-18.88,31.08-20.55,4.32-.83,14.78-3.49,24.16-5.94l4.62-8.7" transform="translate(0.77 -20.43)"/><path class="cls-6" d="M249.36,449.75s22.57,9.35,31.21,11,25.27,7.13,31.08,20.55l-1.45-7.25c-5.81-13.43-22.44-18.89-31.08-20.56s-33.38-10.28-33.38-10.28l3.62,6.53" transform="translate(0.77 -20.43)"/><path class="cls-7" d="M235.1,442.54l-.63-9,.63-7.77-29.73,1.77v6l-.63,9,2.78,34.07h19.93l7.65-34.07" transform="translate(0.77 -20.43)"/><path class="cls-8" d="M205.37,429.73h29.1l.24,11.31s-5.53,8.12-26.58,11.08l-3.69-8.49.93-13.9" transform="translate(0.77 -20.43)"/><path class="cls-9" d="M220.36,567.14l17.4-94.24V438.19l-17.65,34.23-17.49-28.8V472.9l16.86,94.24" transform="translate(0.77 -20.43)"/><path class="cls-9" d="M202.8,441.32l-2.37,1.22-6.64,34.93,21.91-11.34-12.9-24.81" transform="translate(0.77 -20.43)"/><path class="cls-9" d="M224.15,466.13l21.91,11.34-6.66-38.76-1.64-.52-13.61,27.94" transform="translate(0.77 -20.43)"/><path class="cls-10" d="M248.22,433.92c48,5.58,56.78-20.27,56.78-20.27l6.16,24.66c16.59-13.76,20.5-73.26,20.5-73.26l6.52-53.25c8.41-120.55-54.76-126.53-54.76-126.53-13.33-29.86-110.76-51.2-159.76,20.15-31,45.1-25.29,108.13-25.29,108.13L114,367.9s12,44.34.74,65.19c0,0,21-4.26,23.34-10.9,0,0,6.63,13.75,49.3,10.9" transform="translate(0.77 -20.43)"/><path class="cls-11" d="M283.42,185.27c-13.33-29.86-110.76-51.2-159.76,20.15-31,45.1-25.29,108.13-25.29,108.13l9.75-2.4S102.71,226.59,152.33,190c56.8-41.87,109.35-15.1,129.91-5.21a2.92,2.92,0,0,1,1.18.47" transform="translate(0.77 -20.43)"/><path class="cls-12" d="M123.13,318.43s-5.75-11.14-16.56-7.77c-22.54,7-15.31,55.92,21.94,60.13" transform="translate(0.77 -20.43)"/><path class="cls-12" d="M315.33,318.62s5.74-11.15,16.55-7.77c22.55,7,16.56,55.92-21.28,60.13" transform="translate(0.77 -20.43)"/><path class="cls-12" d="M314.17,306.88a59.71,59.71,0,0,1-5.45,10.28c-8.94-68.74-82.9-99.18-82.9-99.18,39,34.26,39.29,53.4,39.29,53.4-65.78,3.56-98.69-43.31-98.69-43.31s-.35,8.15-4.64,20.59c-5.06,14.68-15.64,35.33-37.6,55.65,0,.31-.05.49-.05.49-1.12,18.54-.83,50.75,7.81,76.61,15.3,45.77,64.08,56.14,87.24,56.14s71.95-10.37,87.24-56.14c8.17-24.47,11.74-55,8-73.5-.06-.34-.16-.69-.23-1" transform="translate(0.77 -20.43)"/><path class="cls-9" d="M193.92,334.25c0,14.12-8.78,25.57-19.61,25.57s-19.61-11.45-19.61-25.57,8.78-25.58,19.61-25.58,19.61,11.45,19.61,25.58" transform="translate(0.77 -20.43)"/><path class="cls-9" d="M284.72,334.25c0,14.12-8.78,25.57-19.61,25.57s-19.61-11.45-19.61-25.57,8.78-25.58,19.61-25.58,19.61,11.45,19.61,25.58" transform="translate(0.77 -20.43)"/><path class="cls-13" d="M163.41,364.88c0,4.42-7.45,8-16.65,8s-16.66-3.59-16.66-8,7.46-8,16.66-8,16.65,3.59,16.65,8" transform="translate(0.77 -20.43)"/><path class="cls-13" d="M308.42,364.88c0,4.42-7.46,8-16.66,8s-16.66-3.59-16.66-8,7.46-8,16.66-8,16.66,3.59,16.66,8" transform="translate(0.77 -20.43)"/><path class="cls-8" d="M125.78,355.38l-1.66-18s-4.67-11.14-11.85-12.87c-9.25-2.22-9.44,12.68-3.08,21.09,9.71,12.88,16.59,9.77,16.59,9.77" transform="translate(0.77 -20.43)"/><path class="cls-8" d="M314,355.38l1.66-18s4.67-11.14,11.85-12.87c9.25-2.22,9.44,12.68,3.09,21.09-9.72,12.88-16.6,9.77-16.6,9.77" transform="translate(0.77 -20.43)"/><path class="cls-14" d="M203.15,473.53l13.11-7.2,3.85,6.09,4.27-6.09,12.36,6.46L236,483.12s-2.69-7.38-15-7.38-17.15,7.57-17.15,7.57l-.74-9.78" transform="translate(0.77 -20.43)"/><path class="cls-15" d="M176,314.93a37.87,37.87,0,0,1,12.86,2.27c-3.59-5.22-8.79-8.53-14.59-8.53-6.56,0-12.34,4.21-15.91,10.65A37.35,37.35,0,0,1,176,314.93" transform="translate(0.77 -20.43)"/><path class="cls-15" d="M263.51,314.93a37.88,37.88,0,0,0-12.87,2.27c3.59-5.22,8.79-8.53,14.59-8.53,6.56,0,12.34,4.21,15.91,10.65a37.31,37.31,0,0,0-17.63-4.39" transform="translate(0.77 -20.43)"/><path class="cls-11" d="M134.75,200.44c31.05,10.43,51.68,10.54,63.23,9,7.77-1.07,3.68-3.85.14-4.47-36.39-6.38-47.24-20.35-47.24-20.35l-16.13,15.86" transform="translate(0.77 -20.43)"/><path class="cls-6" d="M88.26,566.58l9.8-5.08v4.72s-12.7,5.44-14.51,11.25,1.08-7.62,4.71-10.89" transform="translate(0.77 -20.43)"/><path class="cls-6" d="M352.57,566.58l-14.25-7.27V564s17.15,7.63,19,13.44-1.09-7.62-4.72-10.89" transform="translate(0.77 -20.43)"/><path class="cls-4" d="M191,283.27c-7.47-5.69-26.31-8.54-36.62,3.91" transform="translate(0.77 -20.43)"/><path class="cls-16" d="M191.77,319.42c-8.23-17.35-42.7-17.42-37.78,23.5" transform="translate(0.77 -20.43)"/><path class="cls-4" d="M123.13,318.43s-5.75-11.14-16.56-7.77c-22.54,7-15.31,55.92,21.94,60.13m-21.53-47s7.43-5.07,16.55,14.86m.6-33.9c-1.12,18.54-.83,50.75,7.81,76.61,15.3,45.77,64.08,56.14,87.24,56.14s71.95-10.37,87.24-56.14c8.17-24.47,8.88-54.62,8-73.5m-67.6-24.64c7.46-5.69,26.31-8.54,36.62,3.91" transform="translate(0.77 -20.43)"/><path class="cls-16" d="M246.84,321.1c6.72-19,43.55-20.38,38.48,21.82" transform="translate(0.77 -20.43)"/><path class="cls-4" d="M315.33,318.62s5.74-11.15,16.55-7.77c22.55,7,16.56,55.92-21.28,60.13m20.67-47s-7.43-5.07-16.56,14.86m-167.47-8.06,6.27,3.91m132.28,0,8.42-3.91m-75,45v-5.69M312.11,256c18.07,30.82-3.39,61.16-3.39,61.16-8.94-68.74-82.9-99.18-82.9-99.18,39,34.26,39.29,53.4,39.29,53.4-65.78,3.56-98.69-43.31-98.69-43.31s-1.68,39.84-44,77.89c0,0-6.1-26.72,2.79-46.64M99,315.71s-6.29-65.19,24.67-110.29c49-71.35,146.43-50,159.76-20.15,0,0,63,7.64,54.56,128.19M114,367.9s12,44.34.74,65.19c0,0,21-4.26,23.34-10.9,0,0,6.63,13.75,49.3,10.9m144.25-68s-3.91,59.5-20.5,73.26L305,413.65s-8.78,25.85-56.78,20.27m-43.48,9s-33.21,9-41.86,10.62-25.27,7.13-31.08,20.56c-2.2,5.09-26.48,49.34-26.48,49.34L86.81,569.24c-7.62,18.75-6.53,42.09,17.06,43.18M237.26,440s33.22,11.81,41.86,13.47,25.27,7.13,31.08,20.56c2.2,5.09,26.48,49.34,26.48,49.34l18.51,45.84c7.62,18.75,6.53,42.09-17.05,43.18M202.62,443.62l17.49,28.8,17.1-32.11M215.7,466.13l-21.91,11.34L202,443.94m.6,29,16.86,94.24m-26-120.66L176,472.42l8.93,8.33L174.85,491.9l38.54,72.91m23.82-124.5,8.85,37.16-21.91-11.34m13.42,7.56-17.21,93.45M244.83,443.4,264,473.51l-8.94,8.33L265,491.9l-38.54,72.91M204.74,442.54l.65-5.4m29.71,5.4-.63-6" transform="translate(0.77 -20.43)"/><path class="cls-17" d="M190.86,344.85c0,9.63-5.41,17.43-12.09,17.43s-12.09-7.8-12.09-17.43,5.41-17.42,12.09-17.42,12.09,7.8,12.09,17.42" transform="translate(0.77 -20.43)"/><path class="cls-17" d="M248.22,344.85c0,9.63,5.41,17.43,12.09,17.43s12.09-7.8,12.09-17.43-5.41-17.42-12.09-17.42-12.09,7.8-12.09,17.42" transform="translate(0.77 -20.43)"/><path class="cls-9" d="M190.65,339a3.58,3.58,0,1,1-3.58-3.57,3.57,3.57,0,0,1,3.58,3.57" transform="translate(0.77 -20.43)"/><path class="cls-9" d="M271.47,339a3.58,3.58,0,1,1-3.58-3.57,3.57,3.57,0,0,1,3.58,3.57" transform="translate(0.77 -20.43)"/><path class="cls-4" d="M207.73,415c3,5.2,16.68,6.06,22.09.22" transform="translate(0.77 -20.43)"/><path class="cls-18" d="M336.45,638.4a3.3,3.3,0,0,1-3.3,3.29H102.44a3.3,3.3,0,0,1-3.29-3.29v-7.93a3.3,3.3,0,0,1,3.29-3.29H333.15a3.3,3.3,0,0,1,3.3,3.29v7.93" transform="translate(0.77 -20.43)"/><path class="cls-4" d="M336.45,638.4a3.3,3.3,0,0,1-3.3,3.29H102.44a3.3,3.3,0,0,1-3.29-3.29v-7.93a3.3,3.3,0,0,1,3.29-3.29H333.15a3.3,3.3,0,0,1,3.3,3.29Z" transform="translate(0.77 -20.43)"/><path class="cls-19" d="M336.93,625.07a6.39,6.39,0,0,1-6.24,5.74H104.91a6.41,6.41,0,0,1-6.25-5.74L87,488.5a5.21,5.21,0,0,1,5.27-5.73h251a5.2,5.2,0,0,1,5.26,5.73L336.93,625.07" transform="translate(0.77 -20.43)"/><path class="cls-20" d="M101.31,627.29,89.82,492.44a5.21,5.21,0,0,1,5.27-5.73h251" transform="translate(0.77 -20.43)"/><path class="cls-4" d="M336.93,625.07a6.39,6.39,0,0,1-6.24,5.74H104.91a6.41,6.41,0,0,1-6.25-5.74L87,488.5a5.21,5.21,0,0,1,5.27-5.73h251a5.2,5.2,0,0,1,5.26,5.73Z" transform="translate(0.77 -20.43)"/></g><g class="cls-21"><rect x="0.77" y="32.46" width="113.33" height="7.56"/></g><g class="cls-21"><rect class="cls-22" x="0.77" y="32.46" width="113.33" height="7.56"/></g><g class="cls-21"><rect x="0.77" y="77.8" width="113.33" height="7.56"/></g><g class="cls-21"><rect class="cls-22" x="0.77" y="77.8" width="113.33" height="7.56"/></g><g class="cls-21"><rect x="159.43" y="32.46" width="113.33" height="7.56"/></g><g class="cls-21"><rect class="cls-22" x="159.43" y="32.46" width="113.33" height="7.56"/></g><g class="cls-21"><rect x="159.43" y="77.8" width="113.33" height="7.56"/></g><g class="cls-21"><rect class="cls-22" x="159.43" y="77.8" width="113.33" height="7.56"/></g><g class="cls-21"><rect x="318.1" y="32.46" width="113.33" height="7.56"/></g><g class="cls-21"><rect class="cls-22" x="318.1" y="32.46" width="113.33" height="7.56"/></g><g class="cls-21"><rect x="318.1" y="77.8" width="113.33" height="7.56"/></g><g class="cls-21"><rect class="cls-22" x="318.1" y="77.8" width="113.33" height="7.56"/></g><g class="cls-21"><text class="cls-23" transform="translate(15.09 114.92)">Python</text></g><g class="cls-21"><text class="cls-23" transform="translate(337.73 114.92)">maths</text></g><g class="cls-21"><path class="cls-24" d="M262.55,22.67,168.11,136" transform="translate(0.77 -20.43)"/></g></g></g></svg>