<?xml version="1.0" encoding="UTF-8"?><svg xmlns="http://www.w3.org/2000/svg" xmlns:xlink="http://www.w3.org/1999/xlink" fill-opacity="1" color-rendering="auto" color-interpolation="auto" text-rendering="auto" stroke="black" stroke-linecap="square" width="746" stroke-miterlimit="10" shape-rendering="auto" stroke-opacity="1" fill="black" stroke-dasharray="none" font-weight="normal" stroke-width="1" height="360" font-family="'Dialog'" font-style="normal" stroke-linejoin="miter" font-size="12px" stroke-dashoffset="0" image-rendering="auto">
  <!--Generated by ySVG 2.6-->
  <defs id="genericDefs"/>
  <g>
    <defs id="defs1">
      <clipPath clipPathUnits="userSpaceOnUse" id="clipPath1">
        <path d="M0 0 L746 0 L746 360 L0 360 L0 0 Z"/>
      </clipPath>
      <clipPath clipPathUnits="userSpaceOnUse" id="clipPath2">
        <path d="M617 390 L1363 390 L1363 750 L617 750 L617 390 Z"/>
      </clipPath>
      <clipPath clipPathUnits="userSpaceOnUse" id="clipPath3">
        <path d="M-13750.208 -4268.8428 L6953.7798 -4268.8428 L6953.7798 5971.1577 L-13750.208 5971.1577 L-13750.208 -4268.8428 Z"/>
      </clipPath>
      <clipPath clipPathUnits="userSpaceOnUse" id="clipPath4">
        <path d="M-15415.4082 -4268.8428 L5288.5796 -4268.8428 L5288.5796 5971.1577 L-15415.4082 5971.1577 L-15415.4082 -4268.8428 Z"/>
      </clipPath>
      <clipPath clipPathUnits="userSpaceOnUse" id="clipPath5">
        <path d="M-645.4435 -141.5469 L100.5565 -141.5469 L100.5565 208.6242 L-645.4435 208.6242 L-645.4435 -141.5469 Z"/>
      </clipPath>
      <clipPath clipPathUnits="userSpaceOnUse" id="clipPath6">
        <path d="M-45.4459 -130.2132 L700.5541 -130.2132 L700.5541 204.3162 L-45.4459 204.3162 L-45.4459 -130.2132 Z"/>
      </clipPath>
    </defs>
    <g text-rendering="geometricPrecision" shape-rendering="geometricPrecision" transform="matrix(0.036,0,0,0.0352,495.4435,150.0765)">
      <g clip-path="url(#clipPath3)">
        <svg opacity="1" writing-mode="lr-tb" stop-color="rgb(0, 0, 0)" shape-rendering="auto" glyph-orientation-horizontal="0deg" color-profile="auto" lighting-color="rgb(255, 255, 255)" color="rgb(0, 0, 0)" font-weight="400" alignment-baseline="auto" font-style="normal" version="1.0" color-interpolation-filters="linearrgb" text-anchor="start" stroke-linecap="butt" color-interpolation="srgb" font-variant="normal" word-spacing="normal" fill-opacity="1" text-rendering="auto" clip-path="none" text-decoration="none" letter-spacing="normal" viewBox="0 0 1249.000000 1280.000000" glyph-orientation-vertical="auto" display="inline" font-size-adjust="none" fill="rgb(0, 0, 0)" overflow="hidden" font-stretch="normal" stroke-dasharray="none" stroke-miterlimit="4" stop-opacity="1" color-rendering="auto" font-size="12" mask="none" direction="ltr" baseline-shift="baseline" pointer-events="visiblepainted" enable-background="accumulate" fill-rule="nonzero" image-rendering="auto" stroke-dashoffset="0" width="1249.000000pt" marker-end="none" clip="auto" cursor="auto" stroke="none" filter="none" visibility="visible" kerning="auto" stroke-width="1" font-family="&quot;Arial&quot;,&quot;Helvetica&quot;,sans-serif" preserveAspectRatio="xMidYMid meet" flood-opacity="1" clip-rule="nonzero" src="none" height="1280.000000pt" unicode-bidi="normal" stroke-linejoin="miter" stroke-opacity="1" flood-color="rgb(0, 0, 0)" dominant-baseline="auto" marker-start="none" marker-mid="none">
<metadata>
Created by potrace 1.15, written by Peter Selinger 2001-2017
</metadata>
<g fill="#809966" transform="translate(0.000000,1280.000000) scale(0.100000,-0.100000)" stroke="none">
<path d="M8130 12790 c-789 -60 -1484 -324 -2070 -786 -729 -575 -1154 -1349 -1262 -2299 -18 -164 -15 -570 6 -745 44 -366 127 -696 258 -1018 27 -68 48 -125 46 -126 -1 -2 -198 -37 -437 -79 -375 -65 -442 -80 -496 -106 -81 -40 -164 -124 -206 -209 -32 -63 -34 -73 -34 -172 0 -99 2 -109 33 -172 30 -61 55 -88 295 -309 144 -132 262 -247 262 -253 0 -7 -138 -168 -306 -357 -2811 -3166 -4029 -4541 -4039 -4559 -32 -59 -125 -433 -157 -625 -26 -161 -24 -438 4 -561 41 -176 138 -374 197 -402 30 -15 10 -17 696 64 162 19 527 57 811 84 284 27 523 52 532 56 24 9 578 595 588 622 5 13 9 184 9 381 l0 358 68 7 c37 3 292 22 567 42 275 20 511 41 525 48 29 13 424 457 447 502 14 29 13 72 -16 535 -17 277 -33 514 -35 527 -2 16 2 23 18 26 11 3 266 21 566 41 699 47 659 42 692 76 20 19 28 38 28 61 0 18 -11 227 -25 463 -14 237 -25 435 -25 442 0 6 127 163 282 350 154 186 282 339 284 341 1 2 143 -117 316 -265 172 -147 333 -285 358 -306 62 -53 193 -115 265 -126 112 -17 206 12 277 86 70 72 82 115 179 635 50 265 92 485 95 487 2 3 51 -7 109 -22 950 -247 1965 -154 2777 254 541 272 1024 711 1344 1224 280 448 446 933 516 1505 17 138 17 593 0 730 -42 343 -114 631 -232 926 -196 490 -455 900 -806 1275 -699 745 -1614 1214 -2604 1335 -151 18 -541 26 -700 14z m1580 -1724 c336 -60 596 -339 617 -661 26 -403 -304 -744 -718 -745 -78 0 -218 29 -295 61 -348 145 -533 538 -415 881 112 325 463 526 811 464z"/>
</g>
</svg>
      </g>
    </g>
    <g text-rendering="geometricPrecision" shape-rendering="geometricPrecision" transform="matrix(0.036,0,0,0.0352,555.4435,150.0765)">
      <g clip-path="url(#clipPath4)">
        <svg opacity="1" writing-mode="lr-tb" stop-color="rgb(0, 0, 0)" shape-rendering="auto" glyph-orientation-horizontal="0deg" color-profile="auto" lighting-color="rgb(255, 255, 255)" color="rgb(0, 0, 0)" font-weight="400" alignment-baseline="auto" font-style="normal" version="1.0" color-interpolation-filters="linearrgb" text-anchor="start" stroke-linecap="butt" color-interpolation="srgb" font-variant="normal" word-spacing="normal" fill-opacity="1" text-rendering="auto" clip-path="none" text-decoration="none" letter-spacing="normal" viewBox="0 0 1249.000000 1280.000000" glyph-orientation-vertical="auto" display="inline" font-size-adjust="none" fill="rgb(0, 0, 0)" overflow="hidden" font-stretch="normal" stroke-dasharray="none" stroke-miterlimit="4" stop-opacity="1" color-rendering="auto" font-size="12" mask="none" direction="ltr" baseline-shift="baseline" pointer-events="visiblepainted" enable-background="accumulate" fill-rule="nonzero" image-rendering="auto" stroke-dashoffset="0" width="1249.000000pt" marker-end="none" clip="auto" cursor="auto" stroke="none" filter="none" visibility="visible" kerning="auto" stroke-width="1" font-family="&quot;Arial&quot;,&quot;Helvetica&quot;,sans-serif" preserveAspectRatio="xMidYMid meet" flood-opacity="1" clip-rule="nonzero" src="none" height="1280.000000pt" unicode-bidi="normal" stroke-linejoin="miter" stroke-opacity="1" flood-color="rgb(0, 0, 0)" dominant-baseline="auto" marker-start="none" marker-mid="none">
<metadata>
Created by potrace 1.15, written by Peter Selinger 2001-2017
</metadata>
<g fill="#cc6666" transform="translate(0.000000,1280.000000) scale(0.100000,-0.100000)" stroke="none">
<path d="M8130 12790 c-789 -60 -1484 -324 -2070 -786 -729 -575 -1154 -1349 -1262 -2299 -18 -164 -15 -570 6 -745 44 -366 127 -696 258 -1018 27 -68 48 -125 46 -126 -1 -2 -198 -37 -437 -79 -375 -65 -442 -80 -496 -106 -81 -40 -164 -124 -206 -209 -32 -63 -34 -73 -34 -172 0 -99 2 -109 33 -172 30 -61 55 -88 295 -309 144 -132 262 -247 262 -253 0 -7 -138 -168 -306 -357 -2811 -3166 -4029 -4541 -4039 -4559 -32 -59 -125 -433 -157 -625 -26 -161 -24 -438 4 -561 41 -176 138 -374 197 -402 30 -15 10 -17 696 64 162 19 527 57 811 84 284 27 523 52 532 56 24 9 578 595 588 622 5 13 9 184 9 381 l0 358 68 7 c37 3 292 22 567 42 275 20 511 41 525 48 29 13 424 457 447 502 14 29 13 72 -16 535 -17 277 -33 514 -35 527 -2 16 2 23 18 26 11 3 266 21 566 41 699 47 659 42 692 76 20 19 28 38 28 61 0 18 -11 227 -25 463 -14 237 -25 435 -25 442 0 6 127 163 282 350 154 186 282 339 284 341 1 2 143 -117 316 -265 172 -147 333 -285 358 -306 62 -53 193 -115 265 -126 112 -17 206 12 277 86 70 72 82 115 179 635 50 265 92 485 95 487 2 3 51 -7 109 -22 950 -247 1965 -154 2777 254 541 272 1024 711 1344 1224 280 448 446 933 516 1505 17 138 17 593 0 730 -42 343 -114 631 -232 926 -196 490 -455 900 -806 1275 -699 745 -1614 1214 -2604 1335 -151 18 -541 26 -700 14z m1580 -1724 c336 -60 596 -339 617 -661 26 -403 -304 -744 -718 -745 -78 0 -218 29 -295 61 -348 145 -533 538 -415 881 112 325 463 526 811 464z"/>
</g>
</svg>
      </g>
    </g>
    <g text-rendering="geometricPrecision" shape-rendering="geometricPrecision" transform="matrix(1,0,0,1.0281,645.4435,145.5199)">
      <g clip-path="url(#clipPath5)">
        <svg xml:space="preserve" opacity="1" writing-mode="lr-tb" stop-color="rgb(0, 0, 0)" shape-rendering="auto" glyph-orientation-horizontal="0deg" color-profile="auto" lighting-color="rgb(255, 255, 255)" color="rgb(0, 0, 0)" font-weight="400" alignment-baseline="auto" font-style="normal" version="1.1" color-interpolation-filters="linearrgb" text-anchor="start" stroke-linecap="butt" color-interpolation="srgb" font-variant="normal" word-spacing="normal" fill-opacity="1" text-rendering="auto" clip-path="none" text-decoration="none" letter-spacing="normal" viewBox="0 0 57 65" glyph-orientation-vertical="auto" display="inline" font-size-adjust="none" overflow="hidden" fill="rgb(0, 0, 0)" font-stretch="normal" stroke-dasharray="none" id="svg3.Ebene_1" stroke-miterlimit="4" stop-opacity="1" color-rendering="auto" font-size="12" pointer-events="visiblepainted" mask="none" direction="ltr" baseline-shift="baseline" enable-background="new 0 0 57 65" fill-rule="nonzero" image-rendering="auto" stroke-dashoffset="0" width="57px" marker-end="none" clip="auto" cursor="auto" stroke="none" filter="none" visibility="visible" kerning="auto" stroke-width="1" font-family="&quot;Arial&quot;,&quot;Helvetica&quot;,sans-serif" flood-opacity="1" clip-rule="nonzero" src="none" height="65px" unicode-bidi="normal" stroke-linejoin="miter" stroke-opacity="1" flood-color="rgb(0, 0, 0)" dominant-baseline="auto" marker-start="none" x="0px" marker-mid="none" y="0px">
<g>
	
		<radialGradient gradientTransform="matrix(1 0 0 -1 0.2803 -2253.9199)" gradientUnits="userSpaceOnUse" r="11.4448" cx="27.8696" id="svg3.neck_x5F_white_1_" cy="-2299.3257" fx="25.6369" fy="-2300.5422">
		<stop offset="0" style="stop-color:#B38E5D"/>
		<stop offset="1" style="stop-color:#805126"/>
	</radialGradient>
	<path fill="url(#svg3.neck_x5F_white_1_)" id="svg3.neck_x5F_white_2_" d="M19.278,37.799h18.188   v13.23c-1.313,0.371-17.173,0.436-18.188,0.172V37.799z" stroke-miterlimit="10" stroke="#5B453B"/>
	
		<radialGradient gradientTransform="matrix(1 0 0 -1 0.2803 -2253.9199)" gradientUnits="userSpaceOnUse" r="31.0537" cx="27.3228" id="svg3.SVGID_1_" cy="-2307.6812" fx="21.2648" fy="-2310.9819">
		<stop offset="0" style="stop-color:#B38E5D"/>
		<stop offset="1" style="stop-color:#805126"/>
	</radialGradient>
	<path fill="url(#svg3.SVGID_1_)" d="M49.529,51.225c-4.396-4.396-10.951-5.884-12.063-6.109   V37.8H19.278c0,0,0.038,6.903,0,6.868c0,0-6.874,0.997-12.308,6.432C1.378,56.691,0.5,62.77,0.5,62.77   c0,1.938,1.575,3.492,3.523,3.492h48.51c1.947,0,3.521-1.558,3.521-3.492C56.055,62.768,54.211,55.906,49.529,51.225z" stroke-miterlimit="10" stroke="#5B453B"/>
	
		<linearGradient gradientTransform="matrix(1 0 0 1 0.2402 -2319.0742)" x1="59.7656" x2="-3.673" gradientUnits="userSpaceOnUse" y1="2374.7451" y2="2374.7451" id="svg3.body_1_">
		<stop offset="0" style="stop-color:#49AD33"/>
		<stop offset="1" style="stop-color:#C2DA92"/>
	</linearGradient>
	<path fill="url(#svg3.body_1_)" d="M0.5,62.768c0,1.938,1.575,3.494,3.523,3.494h48.51   c1.947,0,3.521-1.559,3.521-3.494c0,0-1.844-6.861-6.525-11.543c-4.815-4.813-11.244-6.146-11.244-6.146   c-1.771,1.655-5.61,3.802-10.063,3.802c-4.453,0-8.292-2.146-10.063-3.802c0,0-5.755,0.586-11.189,6.021   C1.378,56.689,0.5,62.768,0.5,62.768z" id="svg3.body_12_" stroke="#008D33"/>
	<path fill="#2068A3" d="M28.106,33.486c-8.112,0-12.688,4.313-12.688,10.438c0,7.422,12.688,10.438,12.688,10.438   s14.688-3.016,14.688-10.438C42.793,38.75,36.215,33.486,28.106,33.486z M26.288,53.051c0,0-7.135-2.093-8.805-7.201   c-0.222-0.682,0.147-1.156,0.795-1.521V37.8h20.188v6.663c0.235,0.352,1.109,0.737,1.229,1.387   C40.445,49.917,26.288,53.051,26.288,53.051z" stroke="#2068A3"/>
	<path fill="#5491CF" d="M49.529,51.225c-2.239-2.24-5.041-3.724-7.396-4.67   c-2.854,5.51-14.022,7.807-14.022,7.807s-10.472-2.484-12.387-8.514c-2.439,0.771-5.787,2.287-8.749,5.25   c-5.592,5.592-6.47,11.67-6.47,11.67c0,1.938,1.575,3.492,3.523,3.492h48.51c1.947,0,3.521-1.558,3.521-3.492   C56.055,62.768,54.211,55.906,49.529,51.225z" stroke-miterlimit="10" stroke="#2068A3"/>
	<path fill="#5491CF" d="M13.404,44.173c1.15-1.81,2.039-3.832,3.332-5.397c-0.514,1.027-1.669,4.084-1.669,5.148   c0,5.186,10.366,9.079,14.688,10.438c-3.472,1.627-9.134-1.498-11.335-2.36c-3.601-1.419-4.071-3.063-5.89-4.854   C12.523,47.135,12.878,45,13.404,44.173z" stroke="#2068A3"/>
	<path fill="#5491CF" d="M45.777,43.924c-1.317-1.568-5.11-9.424-6.604-6.617c0.516,1.025,3.617,3.693,3.617,6.617   c0,5.186-10.27,8.576-16.698,9.145c1.429,4.938,11.372,1.293,13.804-0.313c3.563-2.354,4.563-5.133,7.854-3.705   C47.754,49.045,48.006,46.574,45.777,43.924z" stroke="#2068A3"/>
	<path fill="none" d="M30.777,54.167c0.357,0.836-0.153,1.983-0.352,2.813   c-0.256,1.084-0.072,2.104,0.102,3.186c0.164,1.02,0.156,2.107,0.25,3.167c0.082,0.916,0.482,1.849,0.357,2.75" stroke="#2068A3" stroke-linecap="round"/>
	<path fill="none" d="M23.695,53.417c-0.508,0.584-0.476,2.209-0.398,3   c0.116,1.183,0.456,2.099,0.333,3.333c-0.192,1.943,0.154,4.479-0.436,6.333" stroke="#2068A3" stroke-linecap="round"/>
	
		<radialGradient gradientTransform="matrix(1 0 0 -1 0.2803 -2253.9199)" gradientUnits="userSpaceOnUse" r="23.425" cx="27.623" id="svg3.face_x5F_white_1_" cy="-2279.646" fx="23.0534" fy="-2282.1357">
		<stop offset="0" style="stop-color:#B38E5D"/>
		<stop offset="1" style="stop-color:#805126"/>
	</radialGradient>
	<path fill="url(#svg3.face_x5F_white_1_)" id="svg3.face_x5F_white_2_" d="M43.676,23.357   c0.086,10.2-6.738,18.52-15.25,18.586c-8.5,0.068-15.464-8.146-15.55-18.344C12.794,13.4,19.618,5.079,28.123,5.012   C36.627,4.945,43.59,13.158,43.676,23.357z" stroke-miterlimit="10" stroke="#5B453B"/>
	
		<linearGradient gradientTransform="matrix(0.275 0 0 0.2733 -1558.9874 -3088.7842)" x1="5761.7578" x2="5785.3872" gradientUnits="userSpaceOnUse" y1="11331.9785" y2="11425.4277" id="svg3.face_highlight_1_">
		<stop offset="0" style="stop-color:#FFFFFF;stop-opacity:0.42"/>
		<stop offset="1" style="stop-color:#FFFFFF;stop-opacity:0.12"/>
	</linearGradient>
	<path fill="url(#svg3.face_highlight_1_)" id="svg3.face_highlight_2_" d="M27.958,6.333c-6.035,0.047-10.747,4.493-12.787,10.386   c-0.664,1.919-0.294,4.043,0.98,5.629c2.73,3.398,5.729,6.283,9.461,8.088c3.137,1.518,7.535,2.385,11.893,1.247   c2.274-0.592,3.988-2.459,4.375-4.766c0.187-1.094,0.293-2.289,0.283-3.553C42.083,13.952,36.271,6.268,27.958,6.333z"/>
	<path fill="#4B4B4B" d="M20.278,13.25   c3.417,4.333,9.333,6.917,9.333,6.917l-1.417-3.5c0,0,7.094,4.691,8.083,4.333c0.968-0.2-1.082-3.807-1.082-3.807   s3.138,1.795,4.854,3.969c1.803,2.28,4.285,3.504,4.285,3.504S47.027,2.719,27.289,2.744C8.278,2.709,12.058,27.678,12.058,27.678   L14.695,17c0,0,0.914,5.757,1.399,4.875C17.861,15.211,18.861,11.5,20.278,13.25z" id="svg3.Hair_Young_Black_1_" stroke="#000000" stroke-linecap="round" stroke-linejoin="round"/>
</g>
</svg>
      </g>
    </g>
    <g font-size="18px" stroke-linecap="butt" transform="matrix(1,0,0,1,-617,-390)" text-rendering="geometricPrecision" font-family="sans-serif" shape-rendering="geometricPrecision" stroke-miterlimit="1.45">
      <text x="1274.7092" xml:space="preserve" y="626.4411" clip-path="url(#clipPath2)" stroke="none">Bob</text>
    </g>
    <g text-rendering="geometricPrecision" shape-rendering="geometricPrecision" transform="matrix(1,0,0,1.0761,45.4459,140.1275)">
      <g clip-path="url(#clipPath6)">
        <svg xml:space="preserve" opacity="1" writing-mode="lr-tb" stop-color="rgb(0, 0, 0)" shape-rendering="auto" glyph-orientation-horizontal="0deg" color-profile="auto" lighting-color="rgb(255, 255, 255)" color="rgb(0, 0, 0)" font-weight="400" alignment-baseline="auto" font-style="normal" version="1.1" color-interpolation-filters="linearrgb" text-anchor="start" stroke-linecap="butt" color-interpolation="srgb" font-variant="normal" word-spacing="normal" fill-opacity="1" text-rendering="auto" clip-path="none" text-decoration="none" letter-spacing="normal" viewBox="0 0 57 65" glyph-orientation-vertical="auto" display="inline" font-size-adjust="none" overflow="hidden" fill="rgb(0, 0, 0)" font-stretch="normal" stroke-dasharray="none" id="svg4.Ebene_1" stroke-miterlimit="4" stop-opacity="1" color-rendering="auto" font-size="12" pointer-events="visiblepainted" mask="none" direction="ltr" baseline-shift="baseline" enable-background="new 0 0 57 65" fill-rule="nonzero" image-rendering="auto" stroke-dashoffset="0" width="57px" marker-end="none" clip="auto" cursor="auto" stroke="none" filter="none" visibility="visible" kerning="auto" stroke-width="1" font-family="&quot;Arial&quot;,&quot;Helvetica&quot;,sans-serif" flood-opacity="1" clip-rule="nonzero" src="none" height="65px" unicode-bidi="normal" stroke-linejoin="miter" stroke-opacity="1" flood-color="rgb(0, 0, 0)" dominant-baseline="auto" marker-start="none" x="0px" marker-mid="none" y="0px">
<g>
	
		<linearGradient gradientTransform="matrix(1 0 0 -1 0.1201 -708.5371)" x1="26.5396" x2="27.7805" gradientUnits="userSpaceOnUse" y1="-732.5005" y2="-762.2984" id="svg4.SVGID_1_">
		<stop offset="0.2711" style="stop-color:#FFAB4F"/>
		<stop offset="1" style="stop-color:#FFD28F"/>
	</linearGradient>
	<path fill="url(#svg4.SVGID_1_)" d="M49.529,51.225c-4.396-4.396-10.951-5.884-12.063-6.109   V37.8H19.278c0,0,0.038,6.903,0,6.868c0,0-6.874,0.997-12.308,6.432C1.378,56.691,0.5,62.77,0.5,62.77   c0,1.938,1.575,3.492,3.523,3.492h48.51c1.947,0,3.521-1.558,3.521-3.492C56.055,62.768,54.211,55.906,49.529,51.225z" stroke-miterlimit="10" stroke="#ED9135"/>
	
		<radialGradient gradientTransform="matrix(1 0 0 -1 0.1201 -708.5371)" gradientUnits="userSpaceOnUse" r="23.424" cx="27.7827" id="svg4.face_x5F_white_1_" cy="-734.2632" fx="23.2131" fy="-736.753">
		<stop offset="0" style="stop-color:#FFD28F"/>
		<stop offset="1" style="stop-color:#FFAB4F"/>
	</radialGradient>
	<path fill="url(#svg4.face_x5F_white_1_)" id="svg4.face_x5F_white_3_" d="M43.676,23.357   c0.086,10.2-6.738,18.52-15.246,18.586c-8.503,0.068-15.467-8.146-15.553-18.344C12.794,13.4,19.618,5.079,28.123,5.012   C36.627,4.945,43.59,13.158,43.676,23.357z" stroke-miterlimit="10" stroke="#ED9135"/>
	
		<linearGradient gradientTransform="matrix(0.275 0 0 0.2733 -783.3976 -1543.4047)" x1="2941.4297" x2="2965.0596" gradientUnits="userSpaceOnUse" y1="5677.457" y2="5770.9087" id="svg4.face_highlight_1_">
		<stop offset="0" style="stop-color:#FFFFFF;stop-opacity:0.42"/>
		<stop offset="1" style="stop-color:#FFFFFF;stop-opacity:0.2067"/>
	</linearGradient>
	<path fill="url(#svg4.face_highlight_1_)" id="svg4.face_highlight_3_" d="M27.958,6.333c-6.035,0.047-10.747,4.493-12.787,10.386   c-0.664,1.919-0.294,4.043,0.98,5.629c2.73,3.398,5.729,6.283,9.461,8.088c3.137,1.518,7.535,2.385,11.893,1.247   c2.274-0.592,3.988-2.459,4.375-4.766c0.183-1.094,0.293-2.289,0.283-3.553C42.083,13.952,36.271,6.268,27.958,6.333z"/>
	<path fill="#CC9869" d="M32.215,9.938   c0,0,5.688,2.75,7.688,8.125c2.104,5.652,4.123,8.232,4.188,8c1.875-6.794,1.063-21.438-10.17-21.587   c-20.455-7.663-25.58,11.962-23.893,19.65c1.078,4.911,2.234,6.686,3.938,8.08C13.966,32.205,15.028,17.563,32.215,9.938z" stroke="#99724F" stroke-linecap="round" stroke-linejoin="round"/>
	
		<radialGradient gradientTransform="matrix(1 0 0 -1 0.1201 -708.5371)" id="svg4.collar_x5F_body_2_" r="32.4004" cx="15.1587" gradientUnits="userSpaceOnUse" cy="-765.7056">
		<stop offset="0" style="stop-color:#B0E8FF"/>
		<stop offset="1" style="stop-color:#74AEEE"/>
	</radialGradient>
	<path fill="url(#svg4.collar_x5F_body_2_)" d="M0.5,62.768c0,1.938,1.575,3.494,3.523,3.494   h48.51c1.947,0,3.521-1.559,3.521-3.494c0,0-1.844-6.861-6.525-11.543c-4.815-4.813-11.244-6.146-11.244-6.146   c-1.771,1.655-5.61,2.802-10.063,2.802c-4.453,0-8.292-1.146-10.063-2.802c0,0-5.755,0.586-11.189,6.021   C1.378,56.689,0.5,62.768,0.5,62.768z" id="svg4.collar_x5F_body_1_" stroke="#5491CF"/>
	
		<radialGradient gradientTransform="matrix(1 0 0 -1 0.1201 -708.5371)" id="svg4.collar_x5F_r_2_" r="9.2834" cx="31.5" gradientUnits="userSpaceOnUse" cy="-755.832">
		<stop offset="0" style="stop-color:#80CCFF"/>
		<stop offset="1" style="stop-color:#74AEEE"/>
	</radialGradient>
	<path fill="url(#svg4.collar_x5F_r_2_)" d="M38.159,41.381c0,0-0.574,2.369-3.013,4.441   c-2.108,1.795-5.783,2.072-5.783,2.072l3.974,6.217c0,0,2.957-1.637,5.009-3.848c1.922-2.072,1.37-5.479,1.37-5.479L38.159,41.381z   " id="svg4.collar_x5F_r_1_" stroke="#5491CF"/>
	
		<radialGradient gradientTransform="matrix(1 0 0 -1 0.1201 -708.5371)" id="svg4.collar_x5F_l_2_" r="9.2837" cx="19.1377" gradientUnits="userSpaceOnUse" cy="-755.873">
		<stop offset="0" style="stop-color:#80CCFF"/>
		<stop offset="1" style="stop-color:#74AEEE"/>
	</radialGradient>
	<path fill="url(#svg4.collar_x5F_l_2_)" d="M18.63,41.422c0,0,0.576,2.369,3.012,4.441   c2.109,1.793,5.785,2.072,5.785,2.072l-3.974,6.217c0,0-2.957-1.637-5.007-3.85c-1.922-2.072-1.37-5.48-1.37-5.48L18.63,41.422z" id="svg4.collar_x5F_l_1_" stroke="#5491CF"/>
	
		<radialGradient gradientTransform="matrix(1 0 0 -1 0.04 64.1543)" id="svg4.Knob2_2_" r="0.9669" cx="27.8872" gradientUnits="userSpaceOnUse" cy="7.9414">
		<stop offset="0" style="stop-color:#80CCFF"/>
		<stop offset="1" style="stop-color:#74AEEE"/>
	</radialGradient>
	<circle fill="url(#svg4.Knob2_2_)" r="0.584" id="svg4.Knob2_1_" cx="28.258" cy="56.254" stroke="#5491CF"/>
	
		<radialGradient gradientTransform="matrix(1 0 0 -1 0.04 64.1543)" id="svg4.Knob1_2_" r="0.9669" cx="27.9253" gradientUnits="userSpaceOnUse" cy="1.6973">
		<stop offset="0" style="stop-color:#80CCFF"/>
		<stop offset="1" style="stop-color:#74AEEE"/>
	</radialGradient>
	<circle fill="url(#svg4.Knob1_2_)" r="0.584" id="svg4.Knob1_1_" cx="28.296" cy="62.499" stroke="#5491CF"/>
</g>
</svg>
      </g>
    </g>
    <g font-size="18px" stroke-linecap="butt" transform="matrix(1,0,0,1,-617,-390)" text-rendering="geometricPrecision" font-family="sans-serif" shape-rendering="geometricPrecision" stroke-miterlimit="1.45">
      <text x="671.2156" xml:space="preserve" y="624.1732" clip-path="url(#clipPath2)" stroke="none">Alice</text>
    </g>
  </g>
</svg>
