<?xml version="1.0" encoding="utf-8" standalone="no"?>
<!DOCTYPE svg PUBLIC "-//W3C//DTD SVG 1.1//EN"
  "http://www.w3.org/Graphics/SVG/1.1/DTD/svg11.dtd">
<svg xmlns:xlink="http://www.w3.org/1999/xlink" width="460.8pt" height="345.6pt" viewBox="0 0 460.8 345.6" xmlns="http://www.w3.org/2000/svg" version="1.1">
 <metadata>
  <rdf:RDF xmlns:dc="http://purl.org/dc/elements/1.1/" xmlns:cc="http://creativecommons.org/ns#" xmlns:rdf="http://www.w3.org/1999/02/22-rdf-syntax-ns#">
   <cc:Work>
    <dc:type rdf:resource="http://purl.org/dc/dcmitype/StillImage"/>
    <dc:date>2022-01-31T09:36:41.583095</dc:date>
    <dc:format>image/svg+xml</dc:format>
    <dc:creator>
     <cc:Agent>
      <dc:title>Matplotlib v3.5.1, https://matplotlib.org/</dc:title>
     </cc:Agent>
    </dc:creator>
   </cc:Work>
  </rdf:RDF>
 </metadata>
 <defs>
  <style type="text/css">*{stroke-linejoin: round; stroke-linecap: butt}</style>
 </defs>
 <g id="figure_1">
  <g id="patch_1">
   <path d="M 0 345.6 
L 460.8 345.6 
L 460.8 0 
L 0 0 
L 0 345.6 
z
" style="fill: none"/>
  </g>
  <g id="axes_1">
   <g id="LineCollection_1">
    <path d="M 268.482645 220.403306 
L 268.482645 172.8 
" clip-path="url(#pa199e27e0f)" style="fill: none; stroke: #000000"/>
    <path d="M 268.482645 220.403306 
L 344.647934 220.403306 
" clip-path="url(#pa199e27e0f)" style="fill: none; stroke: #000000"/>
    <path d="M 268.482645 220.403306 
L 192.317355 220.403306 
" clip-path="url(#pa199e27e0f)" style="fill: none; stroke: #000000"/>
    <path d="M 268.482645 220.403306 
L 268.482645 268.006612 
" clip-path="url(#pa199e27e0f)" style="fill: none; stroke: #000000"/>
    <path d="M 268.482645 172.8 
L 268.482645 125.196694 
" clip-path="url(#pa199e27e0f)" style="fill: none; stroke: #000000"/>
    <path d="M 344.647934 220.403306 
L 420.813223 220.403306 
" clip-path="url(#pa199e27e0f)" style="fill: none; stroke: #000000"/>
    <path d="M 192.317355 220.403306 
L 116.152066 172.8 
" clip-path="url(#pa199e27e0f)" style="fill: none; stroke: #000000"/>
    <path d="M 192.317355 220.403306 
L 116.152066 220.403306 
" clip-path="url(#pa199e27e0f)" style="fill: none; stroke: #000000"/>
    <path d="M 192.317355 220.403306 
L 116.152066 268.006612 
" clip-path="url(#pa199e27e0f)" style="fill: none; stroke: #000000"/>
    <path d="M 268.482645 268.006612 
L 268.482645 315.609917 
" clip-path="url(#pa199e27e0f)" style="fill: none; stroke: #000000"/>
    <path d="M 268.482645 125.196694 
L 268.482645 77.593388 
" clip-path="url(#pa199e27e0f)" style="fill: none; stroke: #000000"/>
    <path d="M 268.482645 77.593388 
L 268.482645 29.990083 
" clip-path="url(#pa199e27e0f)" style="fill: none; stroke: #000000"/>
    <path d="M 268.482645 29.990083 
L 420.813223 220.403306 
" clip-path="url(#pa199e27e0f)" style="fill: none; stroke: #000000"/>
    <path d="M 116.152066 268.006612 
L 39.986777 268.006612 
" clip-path="url(#pa199e27e0f)" style="fill: none; stroke: #000000"/>
   </g>
   <g id="PathCollection_1">
    <defs>
     <path id="C0_0_e1543979e0" d="M 0 8.660254 
C 2.296726 8.660254 4.499694 7.747755 6.123724 6.123724 
C 7.747755 4.499694 8.660254 2.296726 8.660254 -0 
C 8.660254 -2.296726 7.747755 -4.499694 6.123724 -6.123724 
C 4.499694 -7.747755 2.296726 -8.660254 0 -8.660254 
C -2.296726 -8.660254 -4.499694 -7.747755 -6.123724 -6.123724 
C -7.747755 -4.499694 -8.660254 -2.296726 -8.660254 0 
C -8.660254 2.296726 -7.747755 4.499694 -6.123724 6.123724 
C -4.499694 7.747755 -2.296726 8.660254 0 8.660254 
z
"/>
    </defs>
    <g clip-path="url(#pa199e27e0f)">
     <use xlink:href="#C0_0_e1543979e0" x="268.482645" y="220.403306" style="fill: #8080ff; stroke: #8080ff"/>
    </g>
    <g clip-path="url(#pa199e27e0f)">
     <use xlink:href="#C0_0_e1543979e0" x="268.482645" y="172.8" style="fill: #8080ff; stroke: #8080ff"/>
    </g>
    <g clip-path="url(#pa199e27e0f)">
     <use xlink:href="#C0_0_e1543979e0" x="344.647934" y="220.403306" style="fill: #8080ff; stroke: #8080ff"/>
    </g>
    <g clip-path="url(#pa199e27e0f)">
     <use xlink:href="#C0_0_e1543979e0" x="192.317355" y="220.403306" style="fill: #8080ff; stroke: #8080ff"/>
    </g>
    <g clip-path="url(#pa199e27e0f)">
     <use xlink:href="#C0_0_e1543979e0" x="268.482645" y="268.006612" style="fill: #ff0000; stroke: #ff0000"/>
    </g>
    <g clip-path="url(#pa199e27e0f)">
     <use xlink:href="#C0_0_e1543979e0" x="268.482645" y="125.196694" style="fill: #800080; stroke: #800080"/>
    </g>
    <g clip-path="url(#pa199e27e0f)">
     <use xlink:href="#C0_0_e1543979e0" x="268.482645" y="77.593388" style="fill: #808080; stroke: #808080"/>
    </g>
    <g clip-path="url(#pa199e27e0f)">
     <use xlink:href="#C0_0_e1543979e0" x="268.482645" y="29.990083" style="fill: #808080; stroke: #808080"/>
    </g>
    <g clip-path="url(#pa199e27e0f)">
     <use xlink:href="#C0_0_e1543979e0" x="420.813223" y="220.403306" style="fill: #800080; stroke: #800080"/>
    </g>
    <g clip-path="url(#pa199e27e0f)">
     <use xlink:href="#C0_0_e1543979e0" x="116.152066" y="172.8" style="fill: #800080; stroke: #800080"/>
    </g>
    <g clip-path="url(#pa199e27e0f)">
     <use xlink:href="#C0_0_e1543979e0" x="116.152066" y="220.403306" style="fill: #800080; stroke: #800080"/>
    </g>
    <g clip-path="url(#pa199e27e0f)">
     <use xlink:href="#C0_0_e1543979e0" x="116.152066" y="268.006612" style="fill: #800080; stroke: #800080"/>
    </g>
    <g clip-path="url(#pa199e27e0f)">
     <use xlink:href="#C0_0_e1543979e0" x="39.986777" y="268.006612" style="fill: #808080; stroke: #808080"/>
    </g>
    <g clip-path="url(#pa199e27e0f)">
     <use xlink:href="#C0_0_e1543979e0" x="268.482645" y="315.609917" style="fill: #800080; stroke: #800080"/>
    </g>
   </g>
   <g id="text_1">
    <g clip-path="url(#pa199e27e0f)">
     <!-- A -->
     <g transform="translate(264.37827 223.714556)scale(0.12 -0.12)">
      <defs>
       <path id="DejaVuSans-41" d="M 2188 4044 
L 1331 1722 
L 3047 1722 
L 2188 4044 
z
M 1831 4666 
L 2547 4666 
L 4325 0 
L 3669 0 
L 3244 1197 
L 1141 1197 
L 716 0 
L 50 0 
L 1831 4666 
z
" transform="scale(0.015625)"/>
      </defs>
      <use xlink:href="#DejaVuSans-41"/>
     </g>
    </g>
   </g>
   <g id="text_2">
    <g clip-path="url(#pa199e27e0f)">
     <!-- B -->
     <g transform="translate(264.366082 176.11125)scale(0.12 -0.12)">
      <defs>
       <path id="DejaVuSans-42" d="M 1259 2228 
L 1259 519 
L 2272 519 
Q 2781 519 3026 730 
Q 3272 941 3272 1375 
Q 3272 1813 3026 2020 
Q 2781 2228 2272 2228 
L 1259 2228 
z
M 1259 4147 
L 1259 2741 
L 2194 2741 
Q 2656 2741 2882 2914 
Q 3109 3088 3109 3444 
Q 3109 3797 2882 3972 
Q 2656 4147 2194 4147 
L 1259 4147 
z
M 628 4666 
L 2241 4666 
Q 2963 4666 3353 4366 
Q 3744 4066 3744 3513 
Q 3744 3084 3544 2831 
Q 3344 2578 2956 2516 
Q 3422 2416 3680 2098 
Q 3938 1781 3938 1306 
Q 3938 681 3513 340 
Q 3088 0 2303 0 
L 628 0 
L 628 4666 
z
" transform="scale(0.015625)"/>
      </defs>
      <use xlink:href="#DejaVuSans-42"/>
     </g>
    </g>
   </g>
   <g id="text_3">
    <g clip-path="url(#pa199e27e0f)">
     <!-- C -->
     <g transform="translate(340.458246 223.714556)scale(0.12 -0.12)">
      <defs>
       <path id="DejaVuSans-43" d="M 4122 4306 
L 4122 3641 
Q 3803 3938 3442 4084 
Q 3081 4231 2675 4231 
Q 1875 4231 1450 3742 
Q 1025 3253 1025 2328 
Q 1025 1406 1450 917 
Q 1875 428 2675 428 
Q 3081 428 3442 575 
Q 3803 722 4122 1019 
L 4122 359 
Q 3791 134 3420 21 
Q 3050 -91 2638 -91 
Q 1578 -91 968 557 
Q 359 1206 359 2328 
Q 359 3453 968 4101 
Q 1578 4750 2638 4750 
Q 3056 4750 3426 4639 
Q 3797 4528 4122 4306 
z
" transform="scale(0.015625)"/>
      </defs>
      <use xlink:href="#DejaVuSans-43"/>
     </g>
    </g>
   </g>
   <g id="text_4">
    <g clip-path="url(#pa199e27e0f)">
     <!-- D -->
     <g transform="translate(187.697355 223.714556)scale(0.12 -0.12)">
      <defs>
       <path id="DejaVuSans-44" d="M 1259 4147 
L 1259 519 
L 2022 519 
Q 2988 519 3436 956 
Q 3884 1394 3884 2338 
Q 3884 3275 3436 3711 
Q 2988 4147 2022 4147 
L 1259 4147 
z
M 628 4666 
L 1925 4666 
Q 3281 4666 3915 4102 
Q 4550 3538 4550 2338 
Q 4550 1131 3912 565 
Q 3275 0 1925 0 
L 628 0 
L 628 4666 
z
" transform="scale(0.015625)"/>
      </defs>
      <use xlink:href="#DejaVuSans-44"/>
     </g>
    </g>
   </g>
   <g id="text_5">
    <g clip-path="url(#pa199e27e0f)">
     <!-- E -->
     <g transform="translate(264.691395 271.317862)scale(0.12 -0.12)">
      <defs>
       <path id="DejaVuSans-45" d="M 628 4666 
L 3578 4666 
L 3578 4134 
L 1259 4134 
L 1259 2753 
L 3481 2753 
L 3481 2222 
L 1259 2222 
L 1259 531 
L 3634 531 
L 3634 0 
L 628 0 
L 628 4666 
z
" transform="scale(0.015625)"/>
      </defs>
      <use xlink:href="#DejaVuSans-45"/>
     </g>
    </g>
   </g>
   <g id="text_6">
    <g clip-path="url(#pa199e27e0f)">
     <!-- F -->
     <g transform="translate(265.031707 128.507944)scale(0.12 -0.12)">
      <defs>
       <path id="DejaVuSans-46" d="M 628 4666 
L 3309 4666 
L 3309 4134 
L 1259 4134 
L 1259 2759 
L 3109 2759 
L 3109 2228 
L 1259 2228 
L 1259 0 
L 628 0 
L 628 4666 
z
" transform="scale(0.015625)"/>
      </defs>
      <use xlink:href="#DejaVuSans-46"/>
     </g>
    </g>
   </g>
   <g id="text_7">
    <g clip-path="url(#pa199e27e0f)">
     <!-- G -->
     <g transform="translate(263.833582 80.904638)scale(0.12 -0.12)">
      <defs>
       <path id="DejaVuSans-47" d="M 3809 666 
L 3809 1919 
L 2778 1919 
L 2778 2438 
L 4434 2438 
L 4434 434 
Q 4069 175 3628 42 
Q 3188 -91 2688 -91 
Q 1594 -91 976 548 
Q 359 1188 359 2328 
Q 359 3472 976 4111 
Q 1594 4750 2688 4750 
Q 3144 4750 3555 4637 
Q 3966 4525 4313 4306 
L 4313 3634 
Q 3963 3931 3569 4081 
Q 3175 4231 2741 4231 
Q 1884 4231 1454 3753 
Q 1025 3275 1025 2328 
Q 1025 1384 1454 906 
Q 1884 428 2741 428 
Q 3075 428 3337 486 
Q 3600 544 3809 666 
z
" transform="scale(0.015625)"/>
      </defs>
      <use xlink:href="#DejaVuSans-47"/>
     </g>
    </g>
   </g>
   <g id="text_8">
    <g clip-path="url(#pa199e27e0f)">
     <!-- O -->
     <g transform="translate(263.75952 33.301333)scale(0.12 -0.12)">
      <defs>
       <path id="DejaVuSans-4f" d="M 2522 4238 
Q 1834 4238 1429 3725 
Q 1025 3213 1025 2328 
Q 1025 1447 1429 934 
Q 1834 422 2522 422 
Q 3209 422 3611 934 
Q 4013 1447 4013 2328 
Q 4013 3213 3611 3725 
Q 3209 4238 2522 4238 
z
M 2522 4750 
Q 3503 4750 4090 4092 
Q 4678 3434 4678 2328 
Q 4678 1225 4090 567 
Q 3503 -91 2522 -91 
Q 1538 -91 948 565 
Q 359 1222 359 2328 
Q 359 3434 948 4092 
Q 1538 4750 2522 4750 
z
" transform="scale(0.015625)"/>
      </defs>
      <use xlink:href="#DejaVuSans-4f"/>
     </g>
    </g>
   </g>
   <g id="text_9">
    <g clip-path="url(#pa199e27e0f)">
     <!-- H -->
     <g transform="translate(416.301036 223.714556)scale(0.12 -0.12)">
      <defs>
       <path id="DejaVuSans-48" d="M 628 4666 
L 1259 4666 
L 1259 2753 
L 3553 2753 
L 3553 4666 
L 4184 4666 
L 4184 0 
L 3553 0 
L 3553 2222 
L 1259 2222 
L 1259 0 
L 628 0 
L 628 4666 
z
" transform="scale(0.015625)"/>
      </defs>
      <use xlink:href="#DejaVuSans-48"/>
     </g>
    </g>
   </g>
   <g id="text_10">
    <g clip-path="url(#pa199e27e0f)">
     <!-- I -->
     <g transform="translate(114.382066 176.11125)scale(0.12 -0.12)">
      <defs>
       <path id="DejaVuSans-49" d="M 628 4666 
L 1259 4666 
L 1259 0 
L 628 0 
L 628 4666 
z
" transform="scale(0.015625)"/>
      </defs>
      <use xlink:href="#DejaVuSans-49"/>
     </g>
    </g>
   </g>
   <g id="text_11">
    <g clip-path="url(#pa199e27e0f)">
     <!-- J -->
     <g transform="translate(114.382066 223.714556)scale(0.12 -0.12)">
      <defs>
       <path id="DejaVuSans-4a" d="M 628 4666 
L 1259 4666 
L 1259 325 
Q 1259 -519 939 -900 
Q 619 -1281 -91 -1281 
L -331 -1281 
L -331 -750 
L -134 -750 
Q 284 -750 456 -515 
Q 628 -281 628 325 
L 628 4666 
z
" transform="scale(0.015625)"/>
      </defs>
      <use xlink:href="#DejaVuSans-4a"/>
     </g>
    </g>
   </g>
   <g id="text_12">
    <g clip-path="url(#pa199e27e0f)">
     <!-- K -->
     <g transform="translate(112.217379 271.317862)scale(0.12 -0.12)">
      <defs>
       <path id="DejaVuSans-4b" d="M 628 4666 
L 1259 4666 
L 1259 2694 
L 3353 4666 
L 4166 4666 
L 1850 2491 
L 4331 0 
L 3500 0 
L 1259 2247 
L 1259 0 
L 628 0 
L 628 4666 
z
" transform="scale(0.015625)"/>
      </defs>
      <use xlink:href="#DejaVuSans-4b"/>
     </g>
    </g>
   </g>
   <g id="text_13">
    <g clip-path="url(#pa199e27e0f)">
     <!-- L -->
     <g transform="translate(36.643652 271.317862)scale(0.12 -0.12)">
      <defs>
       <path id="DejaVuSans-4c" d="M 628 4666 
L 1259 4666 
L 1259 531 
L 3531 531 
L 3531 0 
L 628 0 
L 628 4666 
z
" transform="scale(0.015625)"/>
      </defs>
      <use xlink:href="#DejaVuSans-4c"/>
     </g>
    </g>
   </g>
   <g id="text_14">
    <g clip-path="url(#pa199e27e0f)">
     <!-- M -->
     <g transform="translate(263.30577 318.921167)scale(0.12 -0.12)">
      <defs>
       <path id="DejaVuSans-4d" d="M 628 4666 
L 1569 4666 
L 2759 1491 
L 3956 4666 
L 4897 4666 
L 4897 0 
L 4281 0 
L 4281 4097 
L 3078 897 
L 2444 897 
L 1241 4097 
L 1241 0 
L 628 0 
L 628 4666 
z
" transform="scale(0.015625)"/>
      </defs>
      <use xlink:href="#DejaVuSans-4d"/>
     </g>
    </g>
   </g>
  </g>
 </g>
 <defs>
  <clipPath id="pa199e27e0f">
   <rect x="0" y="0" width="460.8" height="345.6"/>
  </clipPath>
 </defs>
</svg>
